<svg width="34" height="34" viewBox="0 0 34 34" fill="none" xmlns="http://www.w3.org/2000/svg">
<path d="M16.9999 0.333336C7.79992 0.333336 0.333252 7.8 0.333252 17C0.333252 26.2 7.79992 33.6667 16.9999 33.6667C26.1999 33.6667 33.6666 26.2 33.6666 17C33.6666 7.8 26.1999 0.333336 16.9999 0.333336ZM17.0999 28.6667V25.3167H16.9999C14.8666 25.3167 12.7333 24.5 11.0999 22.8833C9.74332 21.5253 8.89647 19.741 8.70217 17.8314C8.50786 15.9217 8.97798 14.0034 10.0333 12.4L11.8666 14.2333C10.6833 16.45 10.9833 19.25 12.8499 21.1167C14.0166 22.2833 15.5499 22.8333 17.0833 22.8V19.2333L21.7999 23.95L17.0999 28.6667ZM23.9499 21.6L22.1166 19.7667C23.2999 17.55 22.9999 14.75 21.1333 12.8833C20.5922 12.3378 19.9483 11.9052 19.2387 11.6105C18.5292 11.3158 17.7682 11.165 16.9999 11.1667H16.8999V14.75L12.1833 10.05L16.8999 5.33334V8.7C19.0666 8.66667 21.2499 9.45 22.8999 11.1167C25.7333 13.95 26.0833 18.3667 23.9499 21.6V21.6Z" fill="black"/>
</svg>
